<?xml version="1.0" encoding="UTF-8" standalone="no"?>
<!-- Created with Inkscape (http://www.inkscape.org/) -->
<svg
   xmlns:dc="http://purl.org/dc/elements/1.1/"
   xmlns:cc="http://web.resource.org/cc/"
   xmlns:rdf="http://www.w3.org/1999/02/22-rdf-syntax-ns#"
   xmlns:svg="http://www.w3.org/2000/svg"
   xmlns="http://www.w3.org/2000/svg"
   xmlns:sodipodi="http://sodipodi.sourceforge.net/DTD/sodipodi-0.dtd"
   xmlns:inkscape="http://www.inkscape.org/namespaces/inkscape"
   id="svg2"
   sodipodi:version="0.32"
   inkscape:version="0.44"
   width="189.9342"
   height="233.65305"
   version="1.0"
   sodipodi:docbase="C:\Documents and Settings\gen\Desktop"
   sodipodi:docname="Khan Younis, Gaza Strip.svg">
  <metadata
     id="metadata7">
    <rdf:RDF>
      <cc:Work
         rdf:about="">
        <dc:format>image/svg+xml</dc:format>
        <dc:type
           rdf:resource="http://purl.org/dc/dcmitype/StillImage" />
      </cc:Work>
    </rdf:RDF>
  </metadata>
  <defs
     id="defs5" />
  <sodipodi:namedview
     inkscape:window-height="719"
     inkscape:window-width="1024"
     inkscape:pageshadow="2"
     inkscape:pageopacity="0.0"
     guidetolerance="10.0"
     gridtolerance="10.0"
     objecttolerance="10.0"
     borderopacity="1.0"
     bordercolor="#666666"
     pagecolor="#ffffff"
     id="base"
     inkscape:zoom="2.2426415"
     inkscape:cx="94.9671"
     inkscape:cy="116.82653"
     inkscape:window-x="-4"
     inkscape:window-y="-4"
     inkscape:current-layer="svg2" />
  <path
     style="fill:#ffefd5;fill-opacity:1;fill-rule:evenodd;stroke:#b7c1ff;stroke-width:2;stroke-linecap:butt;stroke-linejoin:miter;stroke-miterlimit:4;stroke-dasharray:none;stroke-opacity:1"
     d="M 148.62203,1 L 165.65534,16.32998 L 183.25643,31.09219 L 188.9342,36.20218 L 184.95976,44.15106 L 178.14644,50.96439 L 177.57866,54.93882 L 165.65534,57.77771 L 158.27424,61.18437 L 153.16425,65.15881 L 141.80871,75.3788 L 127.61428,90.70878 L 118.52985,98.65766 L 109.44541,108.87765 L 95.81876,117.3943 L 89.00544,129.8854 L 78.21768,141.80871 L 79.92101,161.68091 L 82.19211,175.87534 L 82.19211,184.39199 L 78.78545,194.0442 L 65.72658,198.58642 L 61.75214,209.37418 L 54.37104,215.05196 L 49.82882,218.45862 L 43.0155,220.72973 L 37.9055,224.13639 L 33.36329,229.81416 L 29.38885,232.08527 L 24.84663,232.65304 L 22.00775,224.13639 L 22.00775,215.61973 L 16.32998,205.96752 L 14.05887,196.88309 L 12.35554,189.50199 L 7.24554,183.82422 L 2.70333,175.87534 L 1,171.33312 L 4.97443,165.08757 L 15.7622,157.70647 L 32.79551,137.83428 L 56.64215,115.12319 L 71.97213,98.08988 L 89.57322,77.08213 L 111.71652,52.66772 L 134.4276,21.43998 L 148.62203,1 z "
     id="path1873" />
  <path
     style="fill:none;fill-rule:evenodd;stroke:black;stroke-width:1px;stroke-linecap:butt;stroke-linejoin:miter;stroke-opacity:1"
     d="M 127.47234,30.95024 L 135.13733,37.19579 L 139.82149,41.73801 L 137.55038,44.86078 L 138.68593,47.13189 L 142.09259,50.39661 L 147.62842,49.54494 L 152.31258,55.08077 L 156.14508,57.20993 L 157.99035,61.32632"
     id="path1875" />
  <path
     style="fill:none;fill-rule:evenodd;stroke:black;stroke-width:1px;stroke-linecap:butt;stroke-linejoin:miter;stroke-opacity:1"
     d="M 84.46322,83.61156 L 90.56683,83.32768 L 97.66404,82.19212 L 99.93515,85.88267 L 102.91598,87.86989 L 105.75486,87.86989 L 105.61292,93.9735 L 107.03236,97.80599 L 107.60014,103.19987 L 111.43263,106.32265"
     id="path1877" />
  <path
     style="fill:none;fill-rule:evenodd;stroke:black;stroke-width:1px;stroke-linecap:butt;stroke-linejoin:miter;stroke-opacity:1"
     d="M 52.66771,118.95569 L 57.49381,123.92374 L 62.60381,129.31762 L 64.87491,132.1565 L 67.85574,132.1565 L 68.70741,129.03373 L 71.26241,129.74345 L 72.5399,133.15011 L 75.37879,136.41483 L 78.21768,138.11816 L 80.63073,139.25372"
     id="path1879" />
  <path
     style="fill:none;fill-rule:evenodd;stroke:black;stroke-width:1px;stroke-linecap:butt;stroke-linejoin:miter;stroke-opacity:1"
     d="M 10.51026,161.53897 L 16.75581,168.35229 L 25.27246,174.45589 L 33.64718,179.14005 L 42.02189,184.1081 L 51.10632,188.22449 L 51.39021,196.5992 L 53.51937,203.12864 L 56.07437,208.94835 L 58.06159,212.35501"
     id="path1881" />
  <path
     style="fill:red;fill-opacity:0.53333321;fill-rule:evenodd;stroke:none;stroke-width:1px;stroke-linecap:butt;stroke-linejoin:miter;stroke-opacity:1"
     d="M 11.20048,161.6163 L 17.44312,157.15727 L 27.03003,145.5638 L 35.05628,136.64575 L 52.89239,119.70144 L 61.58749,128.84245 L 64.93176,132.40967 L 68.05308,132.18672 L 69.3908,129.28834 L 71.25759,130.39891 L 72.73506,133.97033 L 75.19783,136.56741 L 79.64656,139.32116 L 77.41704,141.55067 L 79.20065,161.6163 L 82.09902,182.35078 L 78.30884,193.49834 L 65.15472,197.95737 L 61.14159,208.88199 L 57.57437,211.1115 L 53.33829,201.5246 L 51.33173,194.6131 L 51.55469,188.14751 L 39.96121,182.57373 L 27.47593,175.43928 L 18.78083,169.64255 L 11.20048,161.6163 z "
     id="path3653"
     sodipodi:nodetypes="ccccccccccccccccccccccccccc" />
</svg>
