<svg width="120" height="146" viewBox="0 0 120 146" fill="none" xmlns="http://www.w3.org/2000/svg">
<path fill-rule="evenodd" clip-rule="evenodd" d="M93.8991 0.624878L104.661 10.2039L115.781 19.4282L119.368 22.6212L116.857 27.5882L112.553 31.8455L112.194 34.329L104.661 36.1029L99.9973 38.2316L96.7689 40.715L89.5945 47.1011L80.6265 56.6801L74.8869 61.6471L69.1474 68.0331L60.5381 73.3548L56.2335 81.16L49.4178 88.6104L50.494 101.028L51.9288 109.897V115.219L49.7765 121.25L41.5259 124.088L39.0149 130.829L34.3515 134.377L31.4818 136.506L27.1771 137.925L23.9486 140.053L21.0789 143.601L18.5678 145.02L15.6981 145.375L13.9045 140.053V134.732L10.3173 128.7L8.8824 123.024L7.80624 118.412L4.57775 114.864L1.708 109.897L0.631836 107.059L3.14287 103.156L9.95856 98.5442L20.7202 86.1269L35.7864 71.9357L45.4719 61.2923L56.5922 48.1654L70.5823 32.9099L84.9311 13.397L93.8991 0.624878Z" fill="#FFEFD5" stroke="black" stroke-width="2"/>
<path fill-rule="evenodd" clip-rule="evenodd" d="M7.07642 100.987L11.0205 98.201L17.0775 90.9567L22.1485 85.3842L33.4173 74.7964L38.9108 80.5082L41.0237 82.7372L42.9958 82.5979L43.8409 80.7868L45.0204 81.4808L45.9538 83.7124L47.5098 85.3352L50.3205 87.0559L48.9119 88.4491L50.0388 100.987L51.87 113.943L49.4753 120.909L41.1646 123.695L38.6291 130.522L36.3753 131.915L33.699 125.924L32.4312 121.606L32.5721 117.565L25.2474 114.083L17.3592 109.625L11.8657 106.002L7.07642 100.987Z" id="strip-2" fill="#FF0000" fill-opacity="0.533333"/>
<path d="M3.5 104L6.5 101.5L11 106L16 109.5L26.5 115.5L32 118V123L34 128L36 132.5L32 135.5L27 137L24 139L21 142.5L19 144L16.5 144.5L15 140.5L14.5 138V135L11 128.5L8.5 118L5.5 114.5L2.5 110L1.5 107L3.5 104Z" id="strip-1" fill="#FF7063"/>
<path d="M55.5 80.5L60 72.5L65 69.5L70 66.5L67.5 64.5V61.5L66.5 59V55H65L63 54L61.5 51.5L57.5 52.5H53.5L34 74.5L41 82.5H43L43.5 80.5L45.5 81L46 83L48 85L50.5 86.5L55.5 80.5Z" id="strip-3" fill="#FF7063"/>
<path d="M71.5 33.5L81 20L85 23.5L88 26.5L86.5 28L87.5 30L90 31.5H93L96 34.5L98.5 36L99.5 37.5L95 41L90 45.5L80.5 55.5L74.5 60.5L70 65.5L68.5 64.5L68 61L67 58.5V54.5H65L63 53.5L62 51L57.5 51.5L54 52L71.5 33.5Z" id="strip-4" fill="#FF7063"/>
<path d="M53.3638 52.2453L57.22 52.068L61.704 51.3584L63.1389 53.6645L65.0222 54.9062H66.8158L66.7261 58.7201L67.6229 61.1149L67.9816 64.4853L70.403 66.4366" stroke="black"/>
<path d="M33.2754 74.3304L36.3245 77.4348L39.553 80.8052L40.9879 82.5791H42.8712L43.4092 80.6278L45.0235 81.0713L45.8306 83.1999L47.6242 85.2399L49.4178 86.3043L50.9424 87.0138" stroke="black"/>
<path d="M6.64038 100.939L10.5863 105.196L15.9671 109.01L21.2582 111.937L26.5494 115.041L32.2889 117.614L32.4682 122.847L33.8134 126.927L35.4277 130.563L36.6832 132.692" stroke="black"/>
<path d="M88.5 26L81 19.5L94 2L118.5 23L116 27L111.5 31.5V33.5L104 35.5L99.5 37.5L99 36L96.5 34.5L93.5 31L90 31.5L87.5 29.5L87 28L88.5 26Z" id="strip-4" fill="#FF7063"/>
<path d="M80.5366 19.3395L85.3793 23.2421L88.3388 26.0803L86.9039 28.0316L87.6213 29.4507L89.7737 31.4907L93.2712 30.9585L96.2306 34.4176L98.652 35.7481L99.8178 38.3202" stroke="black"/>
</svg>
